<svg version="1.1" id="Layer_1" xmlns="http://www.w3.org/2000/svg" xmlns:xlink="http://www.w3.org/1999/xlink" x="0px" y="0px"
	 width="100%" viewBox="0 0 484 484" enable-background="new 0 0 484 484" xml:space="preserve">
<path fill="#000000" opacity="1.000000" stroke="none" 
	d="
M263.000000,485.000000 
	C175.333359,485.000000 88.166710,485.000000 1.000047,485.000000 
	C1.000031,323.666718 1.000031,162.333450 1.000016,1.000133 
	C162.333237,1.000089 323.666473,1.000089 484.999756,1.000044 
	C484.999847,162.333206 484.999847,323.666412 484.999939,484.999817 
	C411.166656,485.000000 337.333344,485.000000 263.000000,485.000000 
M369.381897,92.770432 
	C363.006683,87.840591 356.631439,82.910759 349.807800,77.241776 
	C349.538208,75.500267 349.042908,73.759804 349.034821,72.017067 
	C348.970520,58.189102 348.890961,44.359261 349.075195,30.533449 
	C349.120941,27.102379 348.194031,25.304443 344.875580,23.858252 
	C324.735046,15.080905 303.950043,8.644935 281.750336,5.540763 
	C281.750336,20.703554 281.750336,35.777706 281.750336,50.410557 
	C272.630402,49.571728 263.872192,48.766174 254.674652,47.191761 
	C249.230164,47.131428 243.783615,46.957905 238.342056,47.057369 
	C235.519409,47.108963 232.705566,47.643593 228.977341,47.999283 
	C218.001541,49.469082 206.843811,50.140465 196.091446,52.590729 
	C178.788284,56.533791 162.331696,62.938873 146.638962,71.538170 
	C130.670624,80.288498 115.915810,90.676254 103.263695,103.538681 
	C93.233437,113.735687 84.300018,125.163506 75.917877,136.793167 
	C64.135391,153.140594 55.922859,171.438385 50.621487,190.887466 
	C48.161121,199.913788 46.251175,209.150955 44.936092,218.412430 
	C43.463345,228.784317 41.860111,239.336197 42.283966,249.729416 
	C42.834312,263.224365 44.773315,276.737915 47.124645,290.065308 
	C50.136604,307.137115 56.374348,323.337860 64.397591,338.611481 
	C72.007957,353.099091 80.514397,367.210236 92.360153,378.839172 
	C101.969658,388.272766 111.181473,398.228699 121.585655,406.706055 
	C134.771423,417.449829 149.855255,425.430786 165.603928,431.938171 
	C187.847366,441.129150 210.952057,446.645691 235.097946,446.929230 
	C244.686890,447.041840 254.284317,446.106537 263.879913,446.058289 
	C275.996368,445.997314 287.131470,450.462799 297.679749,455.594879 
	C308.230652,460.728302 317.931671,467.596588 328.104736,473.533936 
	C329.340607,474.255280 331.498291,474.554993 332.715607,473.974304 
	C347.697845,466.827728 362.714813,459.731232 377.436462,452.071350 
	C383.999420,448.656586 389.918304,444.003967 397.049438,439.307281 
	C384.571167,428.504730 372.982361,418.472198 361.982178,408.949249 
	C371.410919,400.044922 381.753967,391.309357 390.818481,381.403839 
	C398.662964,372.831543 405.828491,363.402954 411.882935,353.490845 
	C418.495514,342.664978 424.155426,331.126617 429.031555,319.400238 
	C436.993805,300.252228 441.405121,280.138062 441.965546,259.317719 
	C442.176910,251.465988 442.525940,243.559799 441.873718,235.756882 
	C440.937683,224.558411 439.899200,213.269638 437.551422,202.309250 
	C433.103149,181.542572 425.055115,162.021942 413.974152,143.876740 
	C402.153870,124.520836 387.981384,107.122726 369.381897,92.770432 
z"/>
<path fill="#51C4D6" opacity="1.000000" stroke="none" 
	d="
M255.113998,47.960617 
	C263.872192,48.766174 272.630402,49.571728 281.750336,50.410557 
	C281.750336,35.777706 281.750336,20.703554 281.750336,5.540763 
	C303.950043,8.644935 324.735046,15.080905 344.875580,23.858252 
	C348.194031,25.304443 349.120941,27.102379 349.075195,30.533449 
	C348.890961,44.359261 348.970520,58.189102 349.034821,72.017067 
	C349.042908,73.759804 349.538208,75.500267 349.746429,77.921783 
	C349.475525,79.893547 349.085083,81.185043 349.083221,82.477089 
	C349.047394,107.399971 349.039856,132.322968 349.097168,157.245773 
	C349.100861,158.856918 349.675995,160.466736 349.758820,162.017944 
	C349.532318,161.958710 349.066925,162.010132 348.824371,162.346008 
	C348.389282,164.144592 348.029938,165.607208 348.028870,167.070068 
	C348.006470,197.426895 348.024719,227.783722 348.019592,258.579163 
	C347.494232,263.060730 347.353241,267.191620 346.414001,271.132294 
	C340.525055,295.839600 327.121582,315.762573 307.191803,331.301697 
	C289.347504,345.214752 268.755188,352.052521 246.362976,352.791382 
	C237.805756,353.073730 229.086319,351.489471 220.588501,349.943878 
	C196.367523,345.538483 177.007599,332.439667 161.633896,313.889343 
	C150.195801,300.087769 142.828140,284.073303 139.721863,265.952972 
	C136.771393,248.741516 137.778931,232.156464 142.735123,215.601974 
	C149.225449,193.923233 162.036514,176.583481 179.710587,162.862595 
	C195.254242,150.795578 213.144211,143.800095 232.701080,142.136688 
	C248.284988,140.811218 263.781647,142.498840 278.833252,147.222885 
	C279.819672,147.532486 281.040955,147.093689 282.353546,146.642731 
	C282.423370,136.526352 282.292633,126.770226 281.964050,116.668953 
	C272.530701,114.553185 263.359711,111.846039 254.046387,111.204231 
	C233.802078,109.809128 214.080688,112.480766 194.864578,119.868225 
	C170.283981,129.318008 150.210129,144.614517 134.551910,165.306808 
	C121.904846,182.019882 113.533417,200.906189 109.727066,221.927505 
	C106.756561,238.332703 106.134109,254.537109 109.128510,270.781647 
	C113.990967,297.160187 125.678772,320.383911 143.784073,340.133972 
	C154.200302,351.496399 166.590897,360.549988 180.321259,367.659882 
	C201.944611,378.856995 224.842926,385.018585 249.284454,383.850708 
	C257.018127,383.481140 264.694336,381.478973 272.349884,379.983429 
	C297.879822,374.996063 319.735138,362.697937 338.308990,344.920990 
	C351.160736,332.620667 361.087799,318.058502 368.272461,301.491760 
	C378.203796,278.591675 382.192932,254.863632 378.683624,230.355621 
	C376.870636,217.694305 372.172607,205.446091 369.024292,192.679276 
	C369.445984,190.209930 369.768158,188.073013 369.774963,185.935074 
	C369.873199,154.978607 369.929169,124.022003 369.995239,93.065430 
	C387.981384,107.122726 402.153870,124.520836 413.974152,143.876740 
	C425.055115,162.021942 433.103149,181.542572 437.551422,202.309250 
	C439.899200,213.269638 440.937683,224.558411 441.873718,235.756882 
	C442.525940,243.559799 442.176910,251.465988 441.965546,259.317719 
	C441.405121,280.138062 436.993805,300.252228 429.031555,319.400238 
	C424.155426,331.126617 418.495514,342.664978 411.882935,353.490845 
	C405.828491,363.402954 398.662964,372.831543 390.818481,381.403839 
	C381.753967,391.309357 371.410919,400.044922 361.982178,408.949249 
	C372.982361,418.472198 384.571167,428.504730 397.049438,439.307281 
	C389.918304,444.003967 383.999420,448.656586 377.436462,452.071350 
	C362.714813,459.731232 347.697845,466.827728 332.715607,473.974304 
	C331.498291,474.554993 329.340607,474.255280 328.104736,473.533936 
	C317.931671,467.596588 308.230652,460.728302 297.679749,455.594879 
	C287.131470,450.462799 275.996368,445.997314 263.879913,446.058289 
	C254.284317,446.106537 244.686890,447.041840 235.097946,446.929230 
	C210.952057,446.645691 187.847366,441.129150 165.603928,431.938171 
	C149.855255,425.430786 134.771423,417.449829 121.585655,406.706055 
	C111.181473,398.228699 101.969658,388.272766 92.360153,378.839172 
	C80.514397,367.210236 72.007957,353.099091 64.397591,338.611481 
	C56.374348,323.337860 50.136604,307.137115 47.124645,290.065308 
	C44.773315,276.737915 42.834312,263.224365 42.283966,249.729416 
	C41.860111,239.336197 43.463345,228.784317 44.936092,218.412430 
	C46.251175,209.150955 48.161121,199.913788 50.621487,190.887466 
	C55.922859,171.438385 64.135391,153.140594 75.917877,136.793167 
	C84.300018,125.163506 93.233437,113.735687 103.263695,103.538681 
	C115.915810,90.676254 130.670624,80.288498 146.638962,71.538170 
	C162.331696,62.938873 178.788284,56.533791 196.091446,52.590729 
	C206.843811,50.140465 218.001541,49.469082 229.907654,48.003784 
	C238.929977,47.992397 247.021988,47.976505 255.113998,47.960617 
M274.939148,269.256348 
	C277.286774,262.297577 281.285889,255.429688 281.674622,248.363159 
	C282.875214,226.538956 264.680634,208.479736 243.027313,208.881958 
	C222.785187,209.257950 207.216385,224.124649 205.191620,243.311661 
	C203.264084,261.577057 213.644012,276.692230 231.439972,283.575165 
	C235.711517,285.227325 240.735535,286.113586 245.261734,285.698273 
	C257.094299,284.612549 266.979645,279.196899 274.939148,269.256348 
z"/>
<path fill="#2F8089" opacity="1.000000" stroke="none" 
	d="
M349.985321,162.077179 
	C349.675995,160.466736 349.100861,158.856918 349.097168,157.245773 
	C349.039856,132.322968 349.047394,107.399971 349.083221,82.477089 
	C349.085083,81.185043 349.475525,79.893547 349.970642,78.291351 
	C356.631439,82.910759 363.006683,87.840591 369.688599,92.917931 
	C369.929169,124.022003 369.873199,154.978607 369.774963,185.935074 
	C369.768158,188.073013 369.445984,190.209930 368.713928,192.524323 
	C362.100037,182.493286 356.042694,172.285233 349.985321,162.077179 
z"/>
<path fill="#7CD2E0" opacity="1.000000" stroke="none" 
	d="
M254.894318,47.576187 
	C247.021988,47.976505 238.929977,47.992397 230.362854,47.984146 
	C232.705566,47.643593 235.519409,47.108963 238.342056,47.057369 
	C243.783615,46.957905 249.230164,47.131428 254.894318,47.576187 
z"/>
<path fill="#000000" opacity="1.000000" stroke="none" 
	d="
M349.758820,162.017944 
	C356.042694,172.285233 362.100037,182.493286 368.467743,192.856293 
	C372.172607,205.446091 376.870636,217.694305 378.683624,230.355621 
	C382.192932,254.863632 378.203796,278.591675 368.272461,301.491760 
	C361.087799,318.058502 351.160736,332.620667 338.308990,344.920990 
	C319.735138,362.697937 297.879822,374.996063 272.349884,379.983429 
	C264.694336,381.478973 257.018127,383.481140 249.284454,383.850708 
	C224.842926,385.018585 201.944611,378.856995 180.321259,367.659882 
	C166.590897,360.549988 154.200302,351.496399 143.784073,340.133972 
	C125.678772,320.383911 113.990967,297.160187 109.128510,270.781647 
	C106.134109,254.537109 106.756561,238.332703 109.727066,221.927505 
	C113.533417,200.906189 121.904846,182.019882 134.551910,165.306808 
	C150.210129,144.614517 170.283981,129.318008 194.864578,119.868225 
	C214.080688,112.480766 233.802078,109.809128 254.046387,111.204231 
	C263.359711,111.846039 272.530701,114.553185 281.893127,117.132385 
	C282.064331,127.628304 282.108673,137.315659 282.153015,147.003006 
	C281.040955,147.093689 279.819672,147.532486 278.833252,147.222885 
	C263.781647,142.498840 248.284988,140.811218 232.701080,142.136688 
	C213.144211,143.800095 195.254242,150.795578 179.710587,162.862595 
	C162.036514,176.583481 149.225449,193.923233 142.735123,215.601974 
	C137.778931,232.156464 136.771393,248.741516 139.721863,265.952972 
	C142.828140,284.073303 150.195801,300.087769 161.633896,313.889343 
	C177.007599,332.439667 196.367523,345.538483 220.588501,349.943878 
	C229.086319,351.489471 237.805756,353.073730 246.362976,352.791382 
	C268.755188,352.052521 289.347504,345.214752 307.191803,331.301697 
	C327.121582,315.762573 340.525055,295.839600 346.414001,271.132294 
	C347.353241,267.191620 347.494232,263.060730 348.403290,258.353638 
	C348.870544,255.869949 348.996460,254.050400 348.998383,252.230728 
	C349.030457,222.157211 349.046936,192.083664 349.066925,162.010132 
	C349.066925,162.010132 349.532318,161.958710 349.758820,162.017944 
z"/>
<path fill="#000000" opacity="1.000000" stroke="none" 
	d="
M274.759735,269.576691 
	C266.979645,279.196899 257.094299,284.612549 245.261734,285.698273 
	C240.735535,286.113586 235.711517,285.227325 231.439972,283.575165 
	C213.644012,276.692230 203.264084,261.577057 205.191620,243.311661 
	C207.216385,224.124649 222.785187,209.257950 243.027313,208.881958 
	C264.680634,208.479736 282.875214,226.538956 281.674622,248.363159 
	C281.285889,255.429688 277.286774,262.297577 274.759735,269.576691 
z"/>
<path fill="#66CBDA" opacity="1.000000" stroke="none" 
	d="
M348.824371,162.346008 
	C349.046936,192.083664 349.030457,222.157211 348.998383,252.230728 
	C348.996460,254.050400 348.870544,255.869949 348.418640,257.915039 
	C348.024719,227.783722 348.006470,197.426895 348.028870,167.070068 
	C348.029938,165.607208 348.389282,164.144592 348.824371,162.346008 
z"/>
<path fill="#66CBDA" opacity="1.000000" stroke="none" 
	d="
M282.353546,146.642731 
	C282.108673,137.315659 282.064331,127.628304 282.090942,117.477524 
	C282.292633,126.770226 282.423370,136.526352 282.353546,146.642731 
z"/>
</svg>