<svg version="1.1" id="Layer_1" xmlns="http://www.w3.org/2000/svg" xmlns:xlink="http://www.w3.org/1999/xlink" x="0px" y="0px"
	 width="100%" viewBox="0 0 512 512" enable-background="new 0 0 512 512" xml:space="preserve">
<path fill="#4294FF" opacity="1.000000" stroke="none" 
	d="
M1.000001,453.000000 
	C1.000000,322.645782 1.000000,192.291550 1.262224,61.810001 
	C3.077870,60.797935 4.535757,59.627533 6.199037,59.071259 
	C31.343081,50.661888 56.506790,42.311066 81.680641,33.991142 
	C112.388298,23.842308 143.115143,13.751411 173.805496,3.550688 
	C175.018890,3.147386 175.941757,1.870072 177.000000,1.000001 
	C181.356903,1.000000 185.713806,1.000000 190.190399,1.286236 
	C191.206711,4.279751 192.812317,6.969556 192.879532,9.697278 
	C193.202301,22.792309 193.109268,35.897587 193.102295,49.463928 
	C193.028717,187.456390 193.016464,324.984161 193.011353,462.511932 
	C193.011322,463.341553 193.110855,464.171143 193.092850,465.464600 
	C193.014526,471.066528 193.255737,476.219482 192.948105,481.339508 
	C192.314011,491.893463 194.924042,502.653320 191.000000,513.000000 
	C186.643097,513.000000 182.286194,513.000000 177.804718,512.716675 
	C176.884064,511.947968 176.145798,511.288208 175.283554,511.002350 
	C143.051682,500.315216 110.794365,489.704681 78.570976,478.992096 
	C52.693642,470.389282 26.855524,461.668457 1.000001,453.000000 
M139.172821,280.959869 
	C141.103668,280.484375 143.078705,280.140808 144.958069,279.511536 
	C155.430344,276.005219 162.536591,264.344238 160.831070,253.580490 
	C159.081619,242.539474 149.147507,233.468842 138.305618,233.012985 
	C125.152382,232.459961 113.404442,243.135620 113.009766,256.000000 
	C112.581215,269.968323 123.620567,280.874176 139.172821,280.959869 
z"/>
<path fill="#000000" opacity="1.000000" stroke="none" 
	d="
M193.163895,48.999226 
	C193.109268,35.897587 193.202301,22.792309 192.879532,9.697278 
	C192.812317,6.969556 191.206711,4.279751 190.655029,1.286236 
	C298.251190,1.000000 405.502350,1.000000 513.000000,1.000000 
	C513.000000,84.020729 513.000000,167.041702 512.775269,250.869034 
	C511.205475,250.448013 509.809784,249.271378 508.522949,247.985733 
	C486.015564,225.499298 463.530243,202.990768 441.017975,180.509277 
	C435.896606,175.394913 430.126648,175.402008 425.017853,180.480087 
	C418.166229,187.290558 411.336151,194.122833 404.526337,200.975113 
	C399.421295,206.111938 399.402771,211.861816 404.468018,216.970932 
	C409.544525,222.091461 414.662964,227.170410 420.331879,232.836121 
	C402.550995,232.836121 385.775879,232.836121 369.000427,232.379532 
	C369.000031,173.949799 369.000824,115.976654 368.998993,58.003510 
	C368.998749,50.741928 367.277374,49.001617 360.086578,49.001282 
	C304.445679,48.998684 248.804794,48.999481 193.163895,48.999226 
z"/>
<path fill="#000000" opacity="1.000000" stroke="none" 
	d="
M191.468658,513.000000 
	C194.924042,502.653320 192.314011,491.893463 192.948105,481.339508 
	C193.255737,476.219482 193.014526,471.066528 193.549103,465.464294 
	C249.387314,465.000061 304.698212,465.000885 360.009094,464.998901 
	C367.295166,464.998627 368.998322,463.312927 368.998627,456.092896 
	C369.001282,397.783234 369.000488,339.473541 369.464600,281.092834 
	C386.457642,281.021790 402.986816,281.021790 419.812805,281.021790 
	C419.445740,281.820343 419.415924,281.983917 419.319336,282.081268 
	C414.395020,287.043335 409.454712,291.989594 404.538452,296.959625 
	C399.443298,302.110596 399.395691,307.864624 404.447205,312.950317 
	C410.899811,319.446503 417.779877,325.567230 423.756592,332.472198 
	C428.954773,338.477692 436.872162,338.021637 442.107758,332.649231 
	C464.182861,309.997070 486.698364,287.773834 509.101868,265.442932 
	C510.160797,264.387421 511.689880,263.803528 513.000000,263.000000 
	C513.000000,346.269562 513.000000,429.539093 513.000000,513.000000 
	C405.979187,513.000000 298.958252,513.000000 191.468658,513.000000 
z"/>
<path fill="#4294FF" opacity="1.000000" stroke="none" 
	d="
M513.000000,262.539368 
	C511.689880,263.803528 510.160797,264.387421 509.101868,265.442932 
	C486.698364,287.773834 464.182861,309.997070 442.107758,332.649231 
	C436.872162,338.021637 428.954773,338.477692 423.756592,332.472198 
	C417.779877,325.567230 410.899811,319.446503 404.447205,312.950317 
	C399.395691,307.864624 399.443298,302.110596 404.538452,296.959625 
	C409.454712,291.989594 414.395020,287.043335 419.319336,282.081268 
	C419.415924,281.983917 419.445740,281.820343 419.812805,281.021790 
	C402.986816,281.021790 386.457642,281.021790 368.999908,281.031219 
	C332.461914,281.027100 296.852478,281.013580 261.243042,281.000000 
	C250.626129,280.995941 249.002670,279.340790 249.000351,268.511230 
	C248.998672,260.690430 248.997742,252.869614 249.000580,245.048798 
	C249.004318,234.703323 250.723801,233.013107 261.182129,232.998413 
	C297.121674,232.947937 333.061218,232.890747 369.000763,232.836121 
	C385.775879,232.836121 402.550995,232.836121 420.331879,232.836121 
	C414.662964,227.170410 409.544525,222.091461 404.468018,216.970932 
	C399.402771,211.861816 399.421295,206.111938 404.526337,200.975113 
	C411.336151,194.122833 418.166229,187.290558 425.017853,180.480087 
	C430.126648,175.402008 435.896606,175.394913 441.017975,180.509277 
	C463.530243,202.990768 486.015564,225.499298 508.522949,247.985733 
	C509.809784,249.271378 511.205475,250.448013 512.775269,251.337692 
	C513.000000,254.692917 513.000000,258.385834 513.000000,262.539368 
z"/>
<path fill="#000000" opacity="1.000000" stroke="none" 
	d="
M176.531342,1.000001 
	C175.941757,1.870072 175.018890,3.147386 173.805496,3.550688 
	C143.115143,13.751411 112.388298,23.842308 81.680641,33.991142 
	C56.506790,42.311066 31.343081,50.661888 6.199037,59.071259 
	C4.535757,59.627533 3.077870,60.797935 1.262224,61.341343 
	C1.000000,41.037140 1.000000,21.074280 1.000000,1.000000 
	C59.354183,1.000000 117.708435,1.000000 176.531342,1.000001 
z"/>
<path fill="#000000" opacity="1.000000" stroke="none" 
	d="
M1.000001,453.468658 
	C26.855524,461.668457 52.693642,470.389282 78.570976,478.992096 
	C110.794365,489.704681 143.051682,500.315216 175.283554,511.002350 
	C176.145798,511.288208 176.884064,511.947968 177.340073,512.716675 
	C118.442276,513.000000 59.884544,513.000000 1.000000,513.000000 
	C1.000000,493.313660 1.000000,473.625488 1.000001,453.468658 
z"/>
<path fill="#E6ECFF" opacity="1.000000" stroke="none" 
	d="
M369.000427,232.379532 
	C333.061218,232.890747 297.121674,232.947937 261.182129,232.998413 
	C250.723801,233.013107 249.004318,234.703323 249.000580,245.048798 
	C248.997742,252.869614 248.998672,260.690430 249.000351,268.511230 
	C249.002670,279.340790 250.626129,280.995941 261.243042,281.000000 
	C296.852478,281.013580 332.461914,281.027100 368.536072,281.102264 
	C369.000488,339.473541 369.001282,397.783234 368.998627,456.092896 
	C368.998322,463.312927 367.295166,464.998627 360.009094,464.998901 
	C304.698212,465.000885 249.387314,465.000061 193.620163,465.000427 
	C193.110855,464.171143 193.011322,463.341553 193.011353,462.511932 
	C193.016464,324.984161 193.028717,187.456390 193.102295,49.463928 
	C248.804794,48.999481 304.445679,48.998684 360.086578,49.001282 
	C367.277374,49.001617 368.998749,50.741928 368.998993,58.003510 
	C369.000824,115.976654 369.000031,173.949799 369.000427,232.379532 
z"/>
<path fill="#376CFB" opacity="1.000000" stroke="none" 
	d="
M138.737701,280.973389 
	C123.620567,280.874176 112.581215,269.968323 113.009766,256.000000 
	C113.404442,243.135620 125.152382,232.459961 138.305618,233.012985 
	C149.147507,233.468842 159.081619,242.539474 160.831070,253.580490 
	C162.536591,264.344238 155.430344,276.005219 144.958069,279.511536 
	C143.078705,280.140808 141.103668,280.484375 138.737701,280.973389 
z"/>
</svg>